<svg width="500" height="500" viewBox="0 0 500 500" fill="none" xmlns="http://www.w3.org/2000/svg">
<g clip-path="url(#clip0_1871_66749)">
<rect width="500" height="500" rx="24" fill="#0A092D"/>
<g filter="url(#filter0_d_1871_66749)">
<rect x="277.09" y="155.374" width="225.619" height="146.564" rx="14" transform="rotate(-15 277.09 155.374)" fill="white"/>
</g>
<rect x="345.114" y="155.943" width="142.214" height="109.938" rx="12.846" transform="rotate(-15 345.114 155.943)" fill="#F6F7FB"/>
<rect x="373.703" y="211.978" width="115.99" height="11.0947" rx="5.54734" transform="rotate(-15 373.703 211.978)" fill="#D9DDE8"/>
<rect x="379.968" y="235.359" width="115.99" height="11.0947" rx="5.54734" transform="rotate(-15 379.968 235.359)" fill="#D9DDE8"/>
<rect x="406.962" y="152.945" width="68.5853" height="11.0947" rx="5.54734" transform="rotate(-15 406.962 152.945)" fill="#D9DDE8"/>
<rect x="413.228" y="176.326" width="68.5853" height="11.0947" rx="5.54734" transform="rotate(-15 413.228 176.326)" fill="#D9DDE8"/>
<path d="M320.676 200.882C321.911 198.921 324.448 198.241 326.499 199.322L328.15 200.192C329.205 200.748 330.439 200.856 331.574 200.491L333.351 199.921C335.558 199.213 337.939 200.323 338.815 202.469L339.52 204.197C339.971 205.3 340.847 206.177 341.951 206.627L343.679 207.333C345.825 208.209 346.935 210.589 346.227 212.797L345.657 214.573C345.292 215.709 345.4 216.943 345.956 217.998L346.826 219.649C347.907 221.699 347.227 224.236 345.266 225.472L343.687 226.467C342.678 227.102 341.967 228.117 341.715 229.283L341.32 231.106C340.83 233.372 338.679 234.879 336.382 234.564L334.533 234.311C333.352 234.15 332.155 234.471 331.213 235.201L329.738 236.345C327.906 237.765 325.29 237.536 323.732 235.819L322.479 234.437C321.677 233.554 320.555 233.03 319.363 232.984L317.498 232.912C315.182 232.823 313.325 230.966 313.235 228.649L313.163 226.785C313.117 225.593 312.594 224.47 311.711 223.669L310.329 222.415C308.612 220.858 308.383 218.242 309.803 216.41L310.947 214.935C311.677 213.993 311.998 212.796 311.836 211.615L311.583 209.766C311.269 207.469 312.776 205.318 315.041 204.827L316.865 204.433C318.031 204.18 319.045 203.47 319.681 202.461L320.676 200.882Z" fill="#282E3E"/>
<path d="M322.682 220.491L328.122 223.685L335.164 211.277" stroke="white" stroke-width="3.88277" stroke-linecap="round" stroke-linejoin="round"/>
<path d="M377.004 197.369L406.21 189.543L406.617 191.064L377.493 199.194L377.004 197.369Z" fill="#F6F7FB"/>
<rect x="368.439" y="160.535" width="2.51968" height="38.4251" transform="rotate(-15 368.439 160.535)" fill="#FF7873"/>
<path d="M367.385 161.47L368.439 160.536L378.384 197.651L377.434 198.973L367.385 161.47Z" fill="#FF7873"/>
<path fill-rule="evenodd" clip-rule="evenodd" d="M406.476 191.755L378.183 199.336C377.847 199.426 377.502 199.226 377.412 198.89L406.618 191.065L406.476 191.755Z" fill="#FF7873"/>
<rect x="370.837" y="159.893" width="26.4566" height="38.4251" transform="rotate(-15 370.837 159.893)" fill="#F6406C"/>
<circle cx="393.616" cy="164.835" r="1.14262" transform="rotate(-153.58 393.616 164.835)" stroke="#FFDC62" stroke-width="0.920122"/>
<circle cx="389.543" cy="163.523" r="0.850092" transform="rotate(-153.58 389.543 163.523)" stroke="#FDD2CA" stroke-width="0.920122"/>
<circle cx="384.335" cy="184.999" r="1.14262" transform="rotate(-15 384.335 184.999)" stroke="#FDD2CA" stroke-width="0.920122"/>
<circle cx="388.578" cy="185.56" r="0.850092" transform="rotate(-15 388.578 185.56)" stroke="#FFDC62" stroke-width="0.920122"/>
<mask id="path-19-outside-1_1871_66749" maskUnits="userSpaceOnUse" x="378.806" y="165.693" width="20.8299" height="20.8299" fill="black">
<rect fill="white" x="378.806" y="165.693" width="20.8299" height="20.8299"/>
<path fill-rule="evenodd" clip-rule="evenodd" d="M386.43 171.945L386.992 171.565C387.966 170.938 390.003 169.271 390.356 167.617C390.798 165.549 399.012 177.383 392.908 181.515L386.43 171.945ZM386.431 171.945L385.869 172.325C384.925 172.997 382.621 174.268 380.954 173.981C378.87 173.623 386.803 185.647 392.908 181.515L386.431 171.945Z"/>
</mask>
<path fill-rule="evenodd" clip-rule="evenodd" d="M386.43 171.945L386.992 171.565C387.966 170.938 390.003 169.271 390.356 167.617C390.798 165.549 399.012 177.383 392.908 181.515L386.43 171.945ZM386.431 171.945L385.869 172.325C384.925 172.997 382.621 174.268 380.954 173.981C378.87 173.623 386.803 185.647 392.908 181.515L386.431 171.945Z" fill="#F6406C"/>
<path d="M386.992 171.565L386.494 170.791L386.485 170.797L386.476 170.803L386.992 171.565ZM386.43 171.945L385.915 171.183L385.153 171.698L385.668 172.46L386.43 171.945ZM390.356 167.617L391.256 167.809L391.256 167.809L390.356 167.617ZM392.908 181.515L392.146 182.031L392.661 182.793L393.423 182.277L392.908 181.515ZM385.869 172.325L385.354 171.563L385.345 171.569L385.336 171.575L385.869 172.325ZM386.431 171.945L387.193 171.429L386.677 170.667L385.915 171.183L386.431 171.945ZM380.954 173.981L380.798 174.888L380.798 174.888L380.954 173.981ZM392.908 181.515L393.424 182.277L394.186 181.762L393.67 181L392.908 181.515ZM386.476 170.803L385.915 171.183L386.946 172.707L387.507 172.327L386.476 170.803ZM389.456 167.424C389.334 167.996 388.883 168.673 388.244 169.338C387.624 169.982 386.928 170.511 386.494 170.791L387.489 172.338C388.029 171.991 388.839 171.374 389.57 170.614C390.281 169.875 391.025 168.892 391.256 167.809L389.456 167.424ZM393.423 182.277C395.241 181.047 395.973 179.234 396.066 177.354C396.156 175.508 395.637 173.563 394.936 171.886C394.232 170.204 393.309 168.708 392.506 167.745C392.123 167.286 391.694 166.858 391.271 166.636C391.075 166.534 390.689 166.371 390.25 166.508C389.726 166.672 389.521 167.122 389.456 167.424L391.256 167.809C391.247 167.853 391.158 168.153 390.799 168.265C390.527 168.35 390.356 168.234 390.416 168.266C390.502 168.311 390.74 168.5 391.093 168.924C391.764 169.728 392.596 171.062 393.238 172.596C393.882 174.135 394.3 175.794 394.228 177.264C394.157 178.701 393.627 179.917 392.392 180.753L393.423 182.277ZM385.668 172.46L392.146 182.031L393.67 180.999L387.192 171.429L385.668 172.46ZM386.385 173.087L386.946 172.707L385.915 171.183L385.354 171.563L386.385 173.087ZM380.798 174.888C381.889 175.076 383.078 174.751 384.029 174.365C385.005 173.969 385.88 173.447 386.403 173.075L385.336 171.575C384.915 171.875 384.165 172.324 383.337 172.66C382.482 173.006 381.686 173.174 381.11 173.075L380.798 174.888ZM392.392 180.753C391.157 181.589 389.832 181.63 388.471 181.161C387.08 180.682 385.695 179.678 384.505 178.507C383.319 177.341 382.391 176.073 381.894 175.152C381.631 174.666 381.544 174.375 381.534 174.278C381.527 174.211 381.571 174.412 381.391 174.634C381.154 174.925 380.842 174.896 380.798 174.888L381.11 173.075C380.805 173.022 380.311 173.045 379.964 173.471C379.674 173.827 379.681 174.247 379.703 174.466C379.752 174.942 379.99 175.499 380.274 176.025C380.869 177.128 381.915 178.541 383.215 179.82C384.511 181.094 386.124 182.299 387.872 182.901C389.651 183.514 391.607 183.507 393.424 182.277L392.392 180.753ZM385.669 172.461L392.146 182.031L393.67 181L387.193 171.429L385.669 172.461Z" fill="#FDD2CA" mask="url(#path-19-outside-1_1871_66749)"/>
<path d="M391.457 171.247L391.366 171.705L391.457 171.247C390.868 171.118 389.885 171.137 389.17 171.994C388.339 172.99 388.5 173.994 388.713 174.552C388.808 174.803 389.029 174.941 389.251 174.953C389.464 174.963 389.677 174.859 389.804 174.66C390.176 174.077 390.889 173.105 391.723 172.352C391.896 172.197 391.97 171.962 391.929 171.741C391.885 171.509 391.714 171.303 391.457 171.247Z" fill="#F6406C" stroke="#FDD2CA" stroke-width="0.920122"/>
<path d="M387.272 178.562L387.389 179.007L387.272 178.562C387.04 178.623 386.875 178.812 386.838 179.033C386.799 179.265 386.904 179.516 387.143 179.639C387.592 179.87 388.276 180.094 389.038 180.137C389.804 180.18 390.675 180.041 391.459 179.511C393.329 178.245 393.507 176.253 393.425 175.37C393.401 175.11 393.217 174.919 392.991 174.863C392.775 174.81 392.541 174.884 392.392 175.067C391.925 175.646 391.153 176.39 390.234 177.058C389.313 177.727 388.273 178.299 387.272 178.562Z" fill="#F6406C" stroke="#FDD2CA" stroke-width="0.920122"/>
<path d="M384.752 177.075C385.372 176.78 386.487 176.338 387.605 176.14C387.836 176.099 388.017 175.942 388.088 175.736C388.162 175.521 388.109 175.261 387.905 175.082C387.438 174.672 386.545 174.182 385.484 174.528C384.251 174.929 383.905 175.848 383.824 176.423C383.788 176.682 383.919 176.91 384.113 177.033C384.299 177.152 384.542 177.175 384.752 177.075Z" fill="#F6406C" stroke="#FDD2CA" stroke-width="0.920122"/>
<g filter="url(#filter1_d_1871_66749)">
<rect x="43.5698" y="217.946" width="225.619" height="146.564" rx="14" transform="rotate(-15 43.5698 217.946)" fill="white"/>
</g>
<rect x="111.594" y="218.514" width="142.214" height="109.938" rx="12.846" transform="rotate(-15 111.594 218.514)" fill="#F6F7FB"/>
<rect x="140.184" y="274.549" width="115.99" height="11.0947" rx="5.54734" transform="rotate(-15 140.184 274.549)" fill="#D9DDE8"/>
<rect x="146.448" y="297.931" width="115.99" height="11.0947" rx="5.54734" transform="rotate(-15 146.448 297.931)" fill="#D9DDE8"/>
<rect x="173.442" y="215.516" width="68.5853" height="11.0947" rx="5.54734" transform="rotate(-15 173.442 215.516)" fill="#D9DDE8"/>
<rect x="179.708" y="238.898" width="68.5853" height="11.0947" rx="5.54734" transform="rotate(-15 179.708 238.898)" fill="#D9DDE8"/>
<path d="M87.1557 263.453C88.3913 261.492 90.9283 260.812 92.979 261.893L94.6298 262.763C95.6847 263.319 96.9189 263.427 98.0543 263.063L99.8312 262.493C102.038 261.784 104.419 262.894 105.295 265.04L106 266.768C106.451 267.872 107.327 268.748 108.431 269.199L110.159 269.904C112.305 270.78 113.415 273.161 112.707 275.368L112.136 277.145C111.772 278.28 111.88 279.514 112.436 280.569L113.306 282.22C114.387 284.271 113.707 286.808 111.746 288.043L110.167 289.038C109.158 289.674 108.447 290.689 108.195 291.854L107.8 293.678C107.31 295.943 105.159 297.45 102.862 297.136L101.013 296.883C99.8318 296.721 98.6351 297.042 97.6928 297.773L96.2181 298.916C94.3862 300.336 91.7697 300.107 90.2123 298.391L88.9585 297.008C88.1574 296.125 87.0346 295.602 85.8431 295.556L83.9784 295.484C81.6621 295.394 79.8049 293.537 79.7154 291.221L79.6434 289.356C79.5974 288.165 79.0738 287.042 78.1907 286.241L76.8085 284.987C75.0916 283.429 74.8627 280.813 76.2831 278.981L77.4265 277.506C78.1572 276.564 78.4778 275.367 78.3162 274.186L78.0633 272.337C77.7492 270.04 79.2557 267.889 81.5213 267.399L83.3451 267.004C84.5105 266.752 85.5254 266.041 86.161 265.032L87.1557 263.453Z" fill="#282E3E"/>
<path d="M89.1622 283.063L94.6016 286.257L101.644 273.849" stroke="white" stroke-width="3.88277" stroke-linecap="round" stroke-linejoin="round"/>
<path d="M143.508 260.969L172.714 253.144L173.122 254.665L143.997 262.795L143.508 260.969Z" fill="#F6F7FB"/>
<rect x="134.943" y="224.136" width="2.51968" height="38.4251" transform="rotate(-15 134.943 224.136)" fill="#FF983A"/>
<path d="M133.889 225.07L134.943 224.136L144.888 261.252L143.938 262.574L133.889 225.07Z" fill="#FF983A"/>
<path fill-rule="evenodd" clip-rule="evenodd" d="M172.981 255.355L144.688 262.936C144.351 263.026 144.006 262.827 143.916 262.491L173.122 254.665L172.981 255.355Z" fill="#FF983A"/>
<rect x="137.341" y="223.493" width="26.4566" height="38.4251" transform="rotate(-15 137.341 223.493)" fill="#FFCD1F"/>
<path d="M146.2 231.873C146.009 231.763 145.764 231.828 145.654 232.019L143.854 235.137C143.743 235.328 143.809 235.573 144 235.683C144.191 235.794 144.436 235.728 144.547 235.537L146.147 232.766L148.918 234.366C149.109 234.476 149.354 234.411 149.464 234.219C149.575 234.028 149.509 233.783 149.318 233.673L146.2 231.873ZM150.527 247.566L146.387 232.116L145.614 232.323L149.754 247.773L150.527 247.566Z" fill="#D05700"/>
<path d="M161.351 244.348C159.68 238.112 153.403 234.376 147.332 236.003" stroke="#FF7873"/>
<path d="M156.596 245.622C156.132 243.888 155.09 242.471 153.75 241.539" stroke="#F6406C"/>
<path d="M166.153 243.354C166.264 243.162 166.198 242.918 166.007 242.807L162.889 241.007C162.698 240.897 162.453 240.962 162.343 241.154C162.232 241.345 162.298 241.59 162.489 241.7L165.261 243.3L163.661 246.071C163.55 246.263 163.616 246.507 163.807 246.618C163.998 246.728 164.243 246.663 164.353 246.471L166.153 243.354ZM150.46 247.68L165.911 243.54L165.703 242.767L150.253 246.907L150.46 247.68Z" fill="#D05700"/>
<path d="M159.661 231.744C159.604 231.53 159.384 231.404 159.171 231.461L155.694 232.393C155.48 232.45 155.354 232.669 155.411 232.883C155.468 233.096 155.687 233.223 155.901 233.165L158.992 232.337L159.82 235.428C159.877 235.642 160.096 235.768 160.31 235.711C160.523 235.654 160.65 235.434 160.593 235.221L159.661 231.744ZM150.703 247.494L159.621 232.047L158.928 231.647L150.01 247.094L150.703 247.494Z" fill="#D05700"/>
<g filter="url(#filter2_d_1871_66749)">
<rect x="-189.95" y="280.518" width="225.619" height="146.564" rx="14" transform="rotate(-15 -189.95 280.518)" fill="white"/>
</g>
<rect x="-121.925" y="281.086" width="142.214" height="109.938" rx="12.846" transform="rotate(-15 -121.925 281.086)" fill="#F6F7FB"/>
<rect x="-93.3359" y="337.12" width="115.99" height="11.0947" rx="5.54734" transform="rotate(-15 -93.3359 337.12)" fill="#D9DDE8"/>
<rect x="-87.0708" y="360.502" width="115.99" height="11.0947" rx="5.54734" transform="rotate(-15 -87.0708 360.502)" fill="#D9DDE8"/>
<rect x="-60.0771" y="278.088" width="68.5853" height="11.0947" rx="5.54734" transform="rotate(-15 -60.0771 278.088)" fill="#D9DDE8"/>
<rect x="-53.812" y="301.47" width="68.5853" height="11.0947" rx="5.54734" transform="rotate(-15 -53.812 301.47)" fill="#D9DDE8"/>
<g filter="url(#filter3_d_1871_66749)">
<rect x="35.8682" y="47.7188" width="225.619" height="146.564" rx="14" transform="rotate(-15 35.8682 47.7188)" fill="white"/>
</g>
<rect x="103.893" y="48.2867" width="142.214" height="109.938" rx="12.846" transform="rotate(-15 103.893 48.2867)" fill="#F6F7FB"/>
<rect x="132.482" y="104.322" width="115.99" height="11.0947" rx="5.54734" transform="rotate(-15 132.482 104.322)" fill="#D9DDE8"/>
<rect x="138.747" y="127.704" width="115.99" height="11.0947" rx="5.54734" transform="rotate(-15 138.747 127.704)" fill="#D9DDE8"/>
<rect x="165.741" y="45.2892" width="68.5853" height="11.0947" rx="5.54734" transform="rotate(-15 165.741 45.2892)" fill="#D9DDE8"/>
<rect x="172.006" y="68.671" width="68.5853" height="11.0947" rx="5.54734" transform="rotate(-15 172.006 68.671)" fill="#D9DDE8"/>
<path d="M79.4545 93.2262C80.6901 91.2649 83.2271 90.5851 85.2778 91.6658L86.9287 92.5358C87.9835 93.0917 89.2177 93.1997 90.3531 92.8354L92.13 92.2653C94.3372 91.5572 96.7176 92.6671 97.5938 94.8132L98.2993 96.5408C98.75 97.6447 99.6261 98.5207 100.73 98.9715L102.458 99.6769C104.604 100.553 105.714 102.934 105.005 105.141L104.435 106.918C104.071 108.053 104.179 109.287 104.735 110.342L105.605 111.993C106.686 114.044 106.006 116.581 104.045 117.816L102.466 118.811C101.457 119.447 100.746 120.461 100.494 121.627L100.099 123.451C99.609 125.716 97.4575 127.223 95.1609 126.909L93.312 126.656C92.1306 126.494 90.9339 126.815 89.9916 127.545L88.5169 128.689C86.685 130.109 84.0685 129.88 82.5111 128.163L81.2574 126.781C80.4562 125.898 79.3334 125.374 78.1419 125.328L76.2772 125.256C73.9609 125.167 72.1037 123.31 72.0143 120.994L71.9423 119.129C71.8963 117.937 71.3727 116.814 70.4895 116.013L69.1073 114.76C67.3905 113.202 67.1615 110.586 68.5819 108.754L69.7254 107.279C70.456 106.337 70.7767 105.14 70.6151 103.959L70.3622 102.11C70.048 99.8132 71.5545 97.6618 73.8201 97.1714L75.6439 96.7767C76.8094 96.5245 77.8242 95.8139 78.4598 94.805L79.4545 93.2262Z" fill="#282E3E"/>
<path d="M81.4611 112.836L86.9004 116.03L93.9432 103.622" stroke="white" stroke-width="3.88277" stroke-linecap="round" stroke-linejoin="round"/>
<path d="M136.027 90.0926L165.241 82.2649L165.648 83.7864L136.517 91.9184L136.027 90.0926Z" fill="#F6F7FB"/>
<rect x="127.46" y="53.25" width="2.52033" height="38.435" transform="rotate(-15 127.46 53.25)" fill="#4255FF"/>
<path d="M126.406 54.1848L127.46 53.25L137.408 90.3753L136.457 91.6974L126.406 54.1848Z" fill="#4255FF"/>
<path fill-rule="evenodd" clip-rule="evenodd" d="M165.507 84.4768L137.207 92.0599C136.871 92.1499 136.525 91.9504 136.435 91.6143L165.648 83.7866L165.507 84.4768Z" fill="#4255FF"/>
<rect x="129.894" y="52.5977" width="26.4634" height="38.435" transform="rotate(-15 129.894 52.5977)" fill="#1F1C8B"/>
<path d="M151.482 66.6769C152.117 69.0483 152.189 71.3095 151.811 73.0409C151.427 74.7947 150.615 75.8888 149.582 76.1656C148.549 76.4423 147.298 75.9009 146.089 74.5739C144.896 73.2638 143.828 71.2694 143.192 68.898C142.557 66.5265 142.485 64.2653 142.863 62.5339C143.247 60.7802 144.059 59.686 145.092 59.4093C146.125 59.1325 147.375 59.6739 148.585 61.0009C149.778 62.311 150.846 64.3054 151.482 66.6769Z" stroke="#DBDFFF" stroke-width="0.8"/>
<path d="M144.357 64.701C142.591 66.4065 141.364 68.3074 140.797 69.9866C140.223 71.6874 140.355 73.0437 141.098 73.8129C141.841 74.582 143.192 74.7621 144.912 74.2474C146.609 73.7392 148.552 72.5796 150.318 70.8741C152.084 69.1687 153.311 67.2678 153.878 65.5886C154.452 63.8878 154.32 62.5315 153.577 61.7623C152.834 60.9932 151.483 60.8131 149.763 61.3278C148.065 61.836 146.123 62.9956 144.357 64.701Z" stroke="#7583FF" stroke-width="0.8"/>
<path d="M148.375 63.6243C150.758 64.2182 152.77 65.2512 154.101 66.4218C155.449 67.6075 156.012 68.8486 155.753 69.886C155.495 70.9235 154.415 71.7549 152.668 72.169C150.944 72.5779 148.682 72.545 146.299 71.951C143.917 71.3571 141.904 70.3242 140.574 69.1535C139.226 67.9678 138.663 66.7267 138.921 65.6893C139.18 64.6519 140.26 63.8204 142.007 63.4063C143.731 62.9974 145.993 63.0304 148.375 63.6243Z" stroke="#A8B1FF" stroke-width="0.8"/>
<circle cx="147.337" cy="67.7876" r="1.31698" transform="rotate(-15 147.337 67.7876)" stroke="#DBDFFF" stroke-width="0.8"/>
<g filter="url(#filter4_d_1871_66749)">
<rect x="204.874" y="347.016" width="225.619" height="146.564" rx="14" transform="rotate(-15 204.874 347.016)" fill="white"/>
</g>
<rect x="272.899" y="347.584" width="142.214" height="109.938" rx="12.846" transform="rotate(-15 272.899 347.584)" fill="#F6F7FB"/>
<rect x="301.488" y="403.619" width="115.99" height="11.0947" rx="5.54734" transform="rotate(-15 301.488 403.619)" fill="#D9DDE8"/>
<rect x="307.752" y="427" width="115.99" height="11.0947" rx="5.54734" transform="rotate(-15 307.752 427)" fill="#D9DDE8"/>
<rect x="334.747" y="344.586" width="68.5853" height="11.0947" rx="5.54734" transform="rotate(-15 334.747 344.586)" fill="#D9DDE8"/>
<rect x="341.012" y="367.968" width="68.5853" height="11.0947" rx="5.54734" transform="rotate(-15 341.012 367.968)" fill="#D9DDE8"/>
<path d="M248.46 392.524C249.696 390.562 252.233 389.883 254.284 390.963L255.935 391.833C256.989 392.389 258.224 392.497 259.359 392.133L261.136 391.563C263.343 390.855 265.723 391.965 266.6 394.111L267.305 395.838C267.756 396.942 268.632 397.818 269.736 398.269L271.463 398.974C273.609 399.851 274.719 402.231 274.011 404.438L273.441 406.215C273.077 407.35 273.185 408.585 273.741 409.639L274.611 411.29C275.691 413.341 275.012 415.878 273.05 417.114L271.472 418.108C270.463 418.744 269.752 419.759 269.5 420.924L269.105 422.748C268.615 425.014 266.463 426.52 264.167 426.206L262.318 425.953C261.136 425.791 259.94 426.112 258.997 426.843L257.523 427.986C255.691 429.407 253.074 429.178 251.517 427.461L250.263 426.079C249.462 425.195 248.339 424.672 247.148 424.626L245.283 424.554C242.967 424.464 241.11 422.607 241.02 420.291L240.948 418.426C240.902 417.235 240.379 416.112 239.495 415.311L238.113 414.057C236.396 412.5 236.167 409.883 237.588 408.051L238.731 406.577C239.462 405.634 239.783 404.438 239.621 403.256L239.368 401.407C239.054 399.111 240.56 396.959 242.826 396.469L244.65 396.074C245.815 395.822 246.83 395.111 247.466 394.102L248.46 392.524Z" fill="#282E3E"/>
<path d="M250.467 412.133L255.906 415.327L262.949 402.919" stroke="white" stroke-width="3.88277" stroke-linecap="round" stroke-linejoin="round"/>
<path d="M304.317 389.746L333.531 381.919L333.938 383.44L304.807 391.572L304.317 389.746Z" fill="#F6F7FB"/>
<rect x="295.75" y="352.904" width="2.52033" height="38.435" transform="rotate(-15 295.75 352.904)" fill="#59E8B5"/>
<path d="M294.696 353.839L295.75 352.904L305.698 390.029L304.748 391.351L294.696 353.839Z" fill="#59E8B5"/>
<path fill-rule="evenodd" clip-rule="evenodd" d="M333.797 384.131L305.497 391.714C305.161 391.804 304.815 391.604 304.725 391.268L333.938 383.44L333.797 384.131Z" fill="#59E8B5"/>
<rect x="298.185" y="352.251" width="26.4634" height="38.435" transform="rotate(-15 298.185 352.251)" fill="#009AA4"/>
<g style="mix-blend-mode:multiply" opacity="0.59">
<circle cx="316.145" cy="367.453" r="9.19381" transform="rotate(-15 316.145 367.453)" fill="#008EC4"/>
</g>
<path d="M315.356 357.78C314.503 358.684 313.628 361.103 316.952 363.546C321.107 366.601 319.771 370.611 315.743 370.988C311.716 371.365 310.072 373.594 310.624 375.44" stroke="#59E8B5" stroke-width="0.631437" stroke-linecap="round"/>
<path d="M321.297 359.372C321.542 360.57 321.075 363.098 317.246 363.625C312.458 364.284 311.593 368.42 314.625 370.689C317.657 372.957 317.896 375.69 316.565 377.033" stroke="#98E3FF" stroke-width="0.631437" stroke-linecap="round"/>
<path d="M321.16 360.549L315.726 359.093M320.63 361.621L315.649 360.286M319.647 362.571L316.477 361.721M317.5 365.15L314.783 364.422M318.329 366.586L313.801 365.372M318.191 368.005L312.984 366.609M317.661 369.076L312.907 367.802M316.226 369.905L313.283 369.116M316.63 372.925L313.913 372.197M317.172 374.526L312.191 373.192M317.034 375.946L311.6 374.49" stroke="#98E3FF" stroke-width="0.631437" stroke-linecap="round"/>
<g filter="url(#filter5_d_1871_66749)">
<rect x="-200.872" y="111.153" width="225.619" height="146.564" rx="14" transform="rotate(-15 -200.872 111.153)" fill="white"/>
</g>
<rect x="-132.848" y="111.721" width="142.214" height="109.938" rx="12.846" transform="rotate(-15 -132.848 111.721)" fill="#F6F7FB"/>
<rect x="-104.258" y="167.756" width="115.99" height="11.0947" rx="5.54734" transform="rotate(-15 -104.258 167.756)" fill="#D9DDE8"/>
<rect x="-97.9941" y="191.138" width="115.99" height="11.0947" rx="5.54734" transform="rotate(-15 -97.9941 191.138)" fill="#D9DDE8"/>
<rect x="-64.7349" y="132.105" width="68.5853" height="11.0947" rx="5.54734" transform="rotate(-15 -64.7349 132.105)" fill="#D9DDE8"/>
<g filter="url(#filter6_d_1871_66749)">
<rect x="438.691" y="284.364" width="225.619" height="146.564" rx="14" transform="rotate(-15 438.691 284.364)" fill="white"/>
</g>
<path d="M482.278 329.872C483.513 327.91 486.05 327.231 488.101 328.311L489.752 329.181C490.807 329.737 492.041 329.845 493.176 329.481L494.953 328.911C497.16 328.203 499.541 329.313 500.417 331.459L501.123 333.186C501.573 334.29 502.449 335.166 503.553 335.617L505.281 336.322C507.427 337.199 508.537 339.579 507.829 341.786L507.259 343.563C506.894 344.699 507.002 345.933 507.558 346.988L508.428 348.638C509.509 350.689 508.829 353.226 506.868 354.462L505.289 355.456C504.28 356.092 503.569 357.107 503.317 358.272L502.923 360.096C502.432 362.362 500.281 363.868 497.984 363.554L496.135 363.301C494.954 363.14 493.757 363.46 492.815 364.191L491.34 365.334C489.508 366.755 486.892 366.526 485.334 364.809L484.081 363.427C483.279 362.544 482.157 362.02 480.965 361.974L479.1 361.902C476.784 361.813 474.927 359.955 474.838 357.639L474.766 355.774C474.72 354.583 474.196 353.46 473.313 352.659L471.931 351.405C470.214 349.848 469.985 347.231 471.405 345.399L472.549 343.925C473.279 342.982 473.6 341.786 473.438 340.604L473.185 338.755C472.871 336.459 474.378 334.307 476.643 333.817L478.467 333.422C479.633 333.17 480.647 332.459 481.283 331.451L482.278 329.872Z" fill="#282E3E"/>
<path d="M484.284 349.481L489.723 352.675L496.766 340.267" stroke="white" stroke-width="3.88277" stroke-linecap="round" stroke-linejoin="round"/>
<g filter="url(#filter7_d_1871_66749)">
<rect x="272.608" y="-15.7158" width="225.619" height="146.564" rx="14" transform="rotate(-15 272.608 -15.7158)" fill="white"/>
</g>
<rect x="340.633" y="-15.1474" width="142.214" height="109.938" rx="12.846" transform="rotate(-15 340.633 -15.1474)" fill="#F6F7FB"/>
<rect x="369.222" y="40.8876" width="115.99" height="11.0947" rx="5.54734" transform="rotate(-15 369.222 40.8876)" fill="#D9DDE8"/>
<rect x="375.487" y="64.269" width="115.99" height="11.0947" rx="5.54734" transform="rotate(-15 375.487 64.269)" fill="#D9DDE8"/>
<rect x="408.746" y="5.23643" width="68.5853" height="11.0947" rx="5.54734" transform="rotate(-15 408.746 5.23643)" fill="#D9DDE8"/>
<path d="M316.195 29.792C317.43 27.8308 319.967 27.151 322.018 28.2317L323.669 29.1017C324.724 29.6576 325.958 29.7656 327.093 29.4013L328.87 28.8312C331.077 28.123 333.458 29.233 334.334 31.379L335.039 33.1066C335.49 34.2105 336.366 35.0866 337.47 35.5373L339.198 36.2428C341.344 37.119 342.454 39.4994 341.746 41.7066L341.176 43.4835C340.811 44.6189 340.919 45.8531 341.475 46.9079L342.345 48.5588C343.426 50.6095 342.746 53.1465 340.785 54.3821L339.206 55.3768C338.197 56.0124 337.486 57.0272 337.234 58.1927L336.84 60.0165C336.349 62.2821 334.198 63.7886 331.901 63.4744L330.052 63.2215C328.871 63.06 327.674 63.3806 326.732 64.1112L325.257 65.2547C323.425 66.6751 320.809 66.4461 319.251 64.7293L317.998 63.3471C317.196 62.4639 316.074 61.9403 314.882 61.8943L313.017 61.8223C310.701 61.7329 308.844 59.8757 308.755 57.5594L308.683 55.6947C308.636 54.5032 308.113 53.3804 307.23 52.5792L305.848 51.3255C304.131 49.7681 303.902 47.1516 305.322 45.3197L306.466 43.845C307.196 42.9027 307.517 41.706 307.355 40.5246L307.102 38.6757C306.788 36.3791 308.295 34.2276 310.56 33.7373L312.384 33.3426C313.55 33.0904 314.564 32.3798 315.2 31.3709L316.195 29.792Z" fill="#282E3E"/>
<path d="M318.201 49.4012L323.64 52.5951L330.683 40.1869" stroke="white" stroke-width="3.88277" stroke-linecap="round" stroke-linejoin="round"/>
<path d="M371.454 25.975L400.667 18.1473L401.075 19.6688L371.943 27.8008L371.454 25.975Z" fill="#F6F7FB"/>
<rect x="362.887" y="-10.8675" width="2.52033" height="38.435" transform="rotate(-15 362.887 -10.8675)" fill="#EEAAFF"/>
<path d="M361.833 -9.93286L362.887 -10.8676L372.835 26.2577L371.884 27.5798L361.833 -9.93286Z" fill="#EEAAFF"/>
<path fill-rule="evenodd" clip-rule="evenodd" d="M400.934 20.3592L372.634 27.9423C372.297 28.0323 371.952 27.8329 371.862 27.4967L401.075 19.669L400.934 20.3592Z" fill="#EEAAFF"/>
<rect x="365" y="-11.1508" width="26.4634" height="38.435" transform="rotate(-15 365 -11.1508)" fill="#9900BE"/>
<path d="M377.341 4.68044C377.392 4.16465 377.745 2.80205 378.751 1.47796M376.978 6.8494C376.923 7.11517 376.879 7.89269 377.143 8.87664" stroke="#FDD2CA" stroke-width="0.8" stroke-linecap="round" stroke-linejoin="round"/>
<path d="M387.479 8.8765C386.37 8.46912 385.917 7.71 385.829 7.38136L384.292 1.64795L383.759 -0.341635L383.539 -1.1632C383.434 -1.55757 383.881 -1.66561 384.117 -1.67033C390.729 -0.976318 391.878 6.64113 391.975 7.67167C392.073 8.7022 391.093 10.3737 389.996 9.61094C388.899 8.84815 388.865 9.38573 387.479 8.8765Z" stroke="#FDD2CA" stroke-width="0.8"/>
<path d="M381.283 10.5365C382.04 9.62935 382.053 8.74528 381.965 8.41664L380.428 2.68324L379.895 0.693649L379.675 -0.127918C379.57 -0.522282 379.128 -0.392332 378.921 -0.278062C373.542 3.62884 376.356 10.8001 376.787 11.7413C377.218 12.6826 378.902 13.6402 379.471 12.4312C380.039 11.2221 380.338 11.6705 381.283 10.5365Z" stroke="#FDD2CA" stroke-width="0.8"/>
<path d="M380.133 1.57768L380.861 0.215489L380.034 -2.87253C379.961 -3.14341 379.968 -3.72597 380.577 -3.88917L381.034 -4.01156C381.237 -4.06596 381.848 -4.02053 382.057 -3.2404C382.266 -2.46027 382.666 -0.965016 382.841 -0.314906L383.952 0.375731" stroke="#FDD2CA" stroke-width="0.8"/>
<path d="M380.732 3.62704L381.644 1.92176C381.789 1.65066 382.236 1.20583 382.862 1.59536C383.489 1.98489 384.366 2.52989 384.562 2.65162" stroke="#FDD2CA" stroke-width="0.8"/>
<g filter="url(#filter8_d_1871_66749)">
<rect x="-28.9434" y="409.667" width="225.619" height="146.564" rx="14" transform="rotate(-15 -28.9434 409.667)" fill="white"/>
</g>
<rect x="39.0811" y="410.235" width="142.214" height="109.938" rx="12.846" transform="rotate(-15 39.0811 410.235)" fill="#F6F7FB"/>
<rect x="67.6704" y="466.27" width="115.99" height="11.0947" rx="5.54734" transform="rotate(-15 67.6704 466.27)" fill="#D9DDE8"/>
<rect x="73.9351" y="489.652" width="115.99" height="11.0947" rx="5.54734" transform="rotate(-15 73.9351 489.652)" fill="#D9DDE8"/>
<rect x="100.929" y="407.237" width="68.5853" height="11.0947" rx="5.54734" transform="rotate(-15 100.929 407.237)" fill="#D9DDE8"/>
<rect x="107.194" y="430.619" width="68.5853" height="11.0947" rx="5.54734" transform="rotate(-15 107.194 430.619)" fill="#D9DDE8"/>
<path d="M14.6425 455.174C15.8781 453.213 18.4151 452.533 20.4658 453.614L22.1166 454.484C23.1715 455.04 24.4057 455.148 25.5411 454.783L27.318 454.213C29.5252 453.505 31.9056 454.615 32.7818 456.761L33.4873 458.489C33.938 459.593 34.8141 460.469 35.918 460.92L37.6456 461.625C39.7916 462.501 40.9016 464.882 40.1934 467.089L39.6233 468.866C39.259 470.001 39.367 471.235 39.9229 472.29L40.7929 473.941C41.8736 475.992 41.1938 478.529 39.2326 479.764L37.6537 480.759C36.6448 481.395 35.9342 482.409 35.682 483.575L35.2873 485.399C34.797 487.664 32.6455 489.171 30.3489 488.857L28.5 488.604C27.3186 488.442 26.1219 488.763 25.1796 489.493L23.7049 490.637C21.873 492.057 19.2565 491.828 17.6991 490.111L16.4454 488.729C15.6442 487.846 14.5214 487.323 13.3299 487.277L11.4652 487.204C9.1489 487.115 7.2917 485.258 7.20226 482.942L7.13026 481.077C7.08425 479.885 6.56066 478.763 5.67749 477.961L4.29533 476.708C2.57844 475.15 2.34953 472.534 3.7699 470.702L4.91335 469.227C5.64398 468.285 5.96464 467.088 5.80305 465.907L5.55016 464.058C5.23602 461.761 6.7425 459.61 9.00807 459.119L10.8319 458.725C11.9973 458.473 13.0122 457.762 13.6478 456.753L14.6425 455.174Z" fill="#282E3E"/>
<path d="M16.6491 474.784L22.0884 477.978L29.1312 465.57" stroke="white" stroke-width="3.88277" stroke-linecap="round" stroke-linejoin="round"/>
<path d="M70.3052 451.414L99.5186 443.587L99.9262 445.108L70.7944 453.24L70.3052 451.414Z" fill="#F6F7FB"/>
<rect x="61.7378" y="414.572" width="2.52033" height="38.435" transform="rotate(-15 61.7378 414.572)" fill="#008EC4"/>
<path d="M60.6836 415.506L61.7377 414.572L71.6854 451.697L70.7351 453.019L60.6836 415.506Z" fill="#008EC4"/>
<path fill-rule="evenodd" clip-rule="evenodd" d="M99.785 445.798L71.4846 453.382C71.1485 453.472 70.803 453.272 70.7129 452.936L99.9263 445.108L99.785 445.798Z" fill="#008EC4"/>
<rect x="64.1724" y="413.919" width="26.4634" height="38.435" transform="rotate(-15 64.1724 413.919)" fill="#51CFFF"/>
<mask id="mask0_1871_66749" style="mask-type:alpha" maskUnits="userSpaceOnUse" x="64" y="407" width="36" height="45">
<rect x="64.1724" y="413.919" width="26.4634" height="38.435" transform="rotate(-15 64.1724 413.919)" fill="#1F1C8B"/>
</mask>
<g mask="url(#mask0_1871_66749)">
<path d="M106.435 416.933C104.666 421.035 98.436 427.785 87.6689 421.961C76.9019 416.137 74.8984 423.828 72.4427 430.914C69.9869 438 65.5373 439.192 65.5373 439.192" stroke="#009AA4" stroke-width="0.740808"/>
<path d="M57.741 440.41C59.5471 436.222 65.9072 429.331 76.8993 435.277C87.8914 441.222 91.7651 430.714 92.4438 426.137C93.1225 421.56 93.8161 421.62 97.4797 418.86" stroke="#1F1C8B" stroke-width="0.756292"/>
<path d="M86.907 428.748C86.2377 426.251 83.6703 424.768 81.1725 425.438C78.6748 426.107 77.1925 428.674 77.8617 431.172" stroke="#1F1C8B" stroke-width="0.437044"/>
<path d="M80.4224 422.638L83.7116 434.914" stroke="#1F1C8B" stroke-width="0.437044"/>
<path d="M89.707 427.999L75.0623 431.923" stroke="#1F1C8B" stroke-width="0.437044"/>
<path d="M88.9493 433.751L82.3843 429.961" stroke="#1F1C8B" stroke-width="0.437044"/>
<path d="M75.8193 426.17L82.3844 429.961" stroke="#1F1C8B" stroke-width="0.437044" stroke-dasharray="0.82 0.82"/>
</g>
</g>
<defs>
<filter id="filter0_d_1871_66749" x="248.598" y="76.3963" width="312.848" height="256.948" filterUnits="userSpaceOnUse" color-interpolation-filters="sRGB">
<feFlood flood-opacity="0" result="BackgroundImageFix"/>
<feColorMatrix in="SourceAlpha" type="matrix" values="0 0 0 0 0 0 0 0 0 0 0 0 0 0 0 0 0 0 127 0" result="hardAlpha"/>
<feOffset dy="7.90873"/>
<feGaussianBlur stdDeviation="15.8175"/>
<feColorMatrix type="matrix" values="0 0 0 0 0.188235 0 0 0 0 0.207843 0 0 0 0 0.270588 0 0 0 0.08 0"/>
<feBlend mode="normal" in2="BackgroundImageFix" result="effect1_dropShadow_1871_66749"/>
<feBlend mode="normal" in="SourceGraphic" in2="effect1_dropShadow_1871_66749" result="shape"/>
</filter>
<filter id="filter1_d_1871_66749" x="15.078" y="138.968" width="312.848" height="256.948" filterUnits="userSpaceOnUse" color-interpolation-filters="sRGB">
<feFlood flood-opacity="0" result="BackgroundImageFix"/>
<feColorMatrix in="SourceAlpha" type="matrix" values="0 0 0 0 0 0 0 0 0 0 0 0 0 0 0 0 0 0 127 0" result="hardAlpha"/>
<feOffset dy="7.90873"/>
<feGaussianBlur stdDeviation="15.8175"/>
<feColorMatrix type="matrix" values="0 0 0 0 0.188235 0 0 0 0 0.207843 0 0 0 0 0.270588 0 0 0 0.08 0"/>
<feBlend mode="normal" in2="BackgroundImageFix" result="effect1_dropShadow_1871_66749"/>
<feBlend mode="normal" in="SourceGraphic" in2="effect1_dropShadow_1871_66749" result="shape"/>
</filter>
<filter id="filter2_d_1871_66749" x="-218.442" y="201.54" width="312.848" height="256.948" filterUnits="userSpaceOnUse" color-interpolation-filters="sRGB">
<feFlood flood-opacity="0" result="BackgroundImageFix"/>
<feColorMatrix in="SourceAlpha" type="matrix" values="0 0 0 0 0 0 0 0 0 0 0 0 0 0 0 0 0 0 127 0" result="hardAlpha"/>
<feOffset dy="7.90873"/>
<feGaussianBlur stdDeviation="15.8175"/>
<feColorMatrix type="matrix" values="0 0 0 0 0.188235 0 0 0 0 0.207843 0 0 0 0 0.270588 0 0 0 0.08 0"/>
<feBlend mode="normal" in2="BackgroundImageFix" result="effect1_dropShadow_1871_66749"/>
<feBlend mode="normal" in="SourceGraphic" in2="effect1_dropShadow_1871_66749" result="shape"/>
</filter>
<filter id="filter3_d_1871_66749" x="7.37629" y="-31.259" width="312.848" height="256.948" filterUnits="userSpaceOnUse" color-interpolation-filters="sRGB">
<feFlood flood-opacity="0" result="BackgroundImageFix"/>
<feColorMatrix in="SourceAlpha" type="matrix" values="0 0 0 0 0 0 0 0 0 0 0 0 0 0 0 0 0 0 127 0" result="hardAlpha"/>
<feOffset dy="7.90873"/>
<feGaussianBlur stdDeviation="15.8175"/>
<feColorMatrix type="matrix" values="0 0 0 0 0.188235 0 0 0 0 0.207843 0 0 0 0 0.270588 0 0 0 0.08 0"/>
<feBlend mode="normal" in2="BackgroundImageFix" result="effect1_dropShadow_1871_66749"/>
<feBlend mode="normal" in="SourceGraphic" in2="effect1_dropShadow_1871_66749" result="shape"/>
</filter>
<filter id="filter4_d_1871_66749" x="176.382" y="268.038" width="312.848" height="256.948" filterUnits="userSpaceOnUse" color-interpolation-filters="sRGB">
<feFlood flood-opacity="0" result="BackgroundImageFix"/>
<feColorMatrix in="SourceAlpha" type="matrix" values="0 0 0 0 0 0 0 0 0 0 0 0 0 0 0 0 0 0 127 0" result="hardAlpha"/>
<feOffset dy="7.90873"/>
<feGaussianBlur stdDeviation="15.8175"/>
<feColorMatrix type="matrix" values="0 0 0 0 0.188235 0 0 0 0 0.207843 0 0 0 0 0.270588 0 0 0 0.08 0"/>
<feBlend mode="normal" in2="BackgroundImageFix" result="effect1_dropShadow_1871_66749"/>
<feBlend mode="normal" in="SourceGraphic" in2="effect1_dropShadow_1871_66749" result="shape"/>
</filter>
<filter id="filter5_d_1871_66749" x="-229.364" y="32.1751" width="312.848" height="256.948" filterUnits="userSpaceOnUse" color-interpolation-filters="sRGB">
<feFlood flood-opacity="0" result="BackgroundImageFix"/>
<feColorMatrix in="SourceAlpha" type="matrix" values="0 0 0 0 0 0 0 0 0 0 0 0 0 0 0 0 0 0 127 0" result="hardAlpha"/>
<feOffset dy="7.90873"/>
<feGaussianBlur stdDeviation="15.8175"/>
<feColorMatrix type="matrix" values="0 0 0 0 0.188235 0 0 0 0 0.207843 0 0 0 0 0.270588 0 0 0 0.08 0"/>
<feBlend mode="normal" in2="BackgroundImageFix" result="effect1_dropShadow_1871_66749"/>
<feBlend mode="normal" in="SourceGraphic" in2="effect1_dropShadow_1871_66749" result="shape"/>
</filter>
<filter id="filter6_d_1871_66749" x="410.199" y="205.386" width="312.849" height="256.948" filterUnits="userSpaceOnUse" color-interpolation-filters="sRGB">
<feFlood flood-opacity="0" result="BackgroundImageFix"/>
<feColorMatrix in="SourceAlpha" type="matrix" values="0 0 0 0 0 0 0 0 0 0 0 0 0 0 0 0 0 0 127 0" result="hardAlpha"/>
<feOffset dy="7.90873"/>
<feGaussianBlur stdDeviation="15.8175"/>
<feColorMatrix type="matrix" values="0 0 0 0 0.188235 0 0 0 0 0.207843 0 0 0 0 0.270588 0 0 0 0.08 0"/>
<feBlend mode="normal" in2="BackgroundImageFix" result="effect1_dropShadow_1871_66749"/>
<feBlend mode="normal" in="SourceGraphic" in2="effect1_dropShadow_1871_66749" result="shape"/>
</filter>
<filter id="filter7_d_1871_66749" x="244.117" y="-94.6936" width="312.848" height="256.948" filterUnits="userSpaceOnUse" color-interpolation-filters="sRGB">
<feFlood flood-opacity="0" result="BackgroundImageFix"/>
<feColorMatrix in="SourceAlpha" type="matrix" values="0 0 0 0 0 0 0 0 0 0 0 0 0 0 0 0 0 0 127 0" result="hardAlpha"/>
<feOffset dy="7.90873"/>
<feGaussianBlur stdDeviation="15.8175"/>
<feColorMatrix type="matrix" values="0 0 0 0 0.188235 0 0 0 0 0.207843 0 0 0 0 0.270588 0 0 0 0.08 0"/>
<feBlend mode="normal" in2="BackgroundImageFix" result="effect1_dropShadow_1871_66749"/>
<feBlend mode="normal" in="SourceGraphic" in2="effect1_dropShadow_1871_66749" result="shape"/>
</filter>
<filter id="filter8_d_1871_66749" x="-57.4352" y="330.689" width="312.848" height="256.948" filterUnits="userSpaceOnUse" color-interpolation-filters="sRGB">
<feFlood flood-opacity="0" result="BackgroundImageFix"/>
<feColorMatrix in="SourceAlpha" type="matrix" values="0 0 0 0 0 0 0 0 0 0 0 0 0 0 0 0 0 0 127 0" result="hardAlpha"/>
<feOffset dy="7.90873"/>
<feGaussianBlur stdDeviation="15.8175"/>
<feColorMatrix type="matrix" values="0 0 0 0 0.188235 0 0 0 0 0.207843 0 0 0 0 0.270588 0 0 0 0.08 0"/>
<feBlend mode="normal" in2="BackgroundImageFix" result="effect1_dropShadow_1871_66749"/>
<feBlend mode="normal" in="SourceGraphic" in2="effect1_dropShadow_1871_66749" result="shape"/>
</filter>
<clipPath id="clip0_1871_66749">
<rect width="500" height="500" rx="24" fill="white"/>
</clipPath>
</defs>
</svg>