<svg width="500" height="500" viewBox="0 0 500 500" fill="none" xmlns="http://www.w3.org/2000/svg">
<rect width="500" height="500" rx="24" fill="#0A092D"/>
<g filter="url(#filter0_d_1871_66739)">
<rect x="143" y="201" width="214" height="83" rx="13.5363" fill="#F6F7FB"/>
</g>
<g filter="url(#filter1_d_1871_66739)">
<rect x="143" y="304.243" width="213.179" height="83.2647" rx="13.539" fill="#F6F7FB"/>
</g>
<g filter="url(#filter2_d_1871_66739)">
<rect x="143" y="93.9998" width="214" height="83" rx="13.5363" fill="#F6F7FB"/>
</g>
<path d="M246.991 109.385C246.893 109.326 246.809 109.213 246.741 109.046C246.672 108.879 246.637 108.746 246.637 108.648C246.637 108.589 246.667 108.53 246.726 108.471C250.272 106.212 252.069 105.083 252.118 105.083H252.177C252.334 105.083 252.413 105.269 252.413 105.643C252.098 106.301 251.823 107.224 251.588 108.412L249.348 120.022C249.24 120.621 249.162 121.142 249.113 121.584C249.063 122.016 249.044 122.369 249.054 122.645C249.073 122.733 249.196 122.826 249.422 122.924C249.658 123.013 249.908 123.086 250.173 123.145C250.448 123.204 250.645 123.234 250.763 123.234C250.822 123.234 250.822 123.411 250.763 123.764C250.753 123.921 250.723 124.029 250.674 124.088C249.771 124.039 249.044 124.005 248.494 123.985C247.954 123.956 247.59 123.941 247.404 123.941C247.266 123.941 246.927 123.956 246.387 123.985C245.857 124.005 245.125 124.039 244.192 124.088C244.133 124.01 244.133 123.848 244.192 123.602C244.251 123.357 244.31 123.234 244.369 123.234C244.545 123.234 244.786 123.204 245.09 123.145C245.395 123.086 245.68 123.013 245.945 122.924C246.21 122.826 246.362 122.733 246.402 122.645C246.549 122.34 246.706 121.78 246.873 120.965L248.936 110.357C249.054 109.778 249.127 109.346 249.157 109.061C249.196 108.629 249.122 108.412 248.936 108.412C248.818 108.412 248.621 108.481 248.346 108.619C248.081 108.756 247.816 108.904 247.551 109.061C247.286 109.218 247.099 109.326 246.991 109.385Z" fill="black"/>
<path d="M243.846 149.729C244.767 149.729 245.513 150.684 246.084 152.592L246.775 154.928L248.716 151.605C249.44 150.355 250.361 149.729 251.48 149.729C252.237 149.729 252.873 149.949 253.389 150.387C253.564 150.727 253.652 151.013 253.652 151.243C253.652 151.572 253.537 151.852 253.306 152.082C253.076 152.312 252.84 152.428 252.599 152.428C252.303 152.428 251.979 152.258 251.628 151.918C251.277 151.578 250.943 151.408 250.625 151.408C250.361 151.408 250.065 151.693 249.736 152.263L247.268 156.475L248.683 161.115C248.903 161.861 249.199 162.234 249.572 162.234C249.901 162.234 250.252 162.064 250.625 161.724C250.998 161.384 251.261 161.071 251.414 160.786C251.502 160.786 251.612 160.873 251.743 161.049C251.875 161.224 251.941 161.356 251.941 161.444C251.897 161.685 251.689 162.031 251.316 162.48C250.954 162.919 250.52 163.319 250.016 163.681C249.522 164.032 249.045 164.208 248.584 164.208C247.674 164.208 246.928 163.254 246.347 161.345L245.59 158.778L243.517 162.365C242.793 163.616 241.872 164.241 240.753 164.241C239.996 164.241 239.36 164.021 238.844 163.583C238.669 163.276 238.581 162.99 238.581 162.727C238.581 162.398 238.696 162.118 238.927 161.888C239.157 161.658 239.393 161.543 239.634 161.543C239.93 161.543 240.254 161.713 240.605 162.053C240.956 162.393 241.29 162.563 241.608 162.563C241.872 162.563 242.168 162.277 242.497 161.707L245.096 157.232L243.747 152.822C243.528 152.077 243.232 151.704 242.859 151.704C242.53 151.704 242.179 151.874 241.806 152.214C241.433 152.554 241.17 152.866 241.016 153.152C240.928 153.152 240.819 153.064 240.687 152.888C240.555 152.713 240.49 152.581 240.49 152.493C240.534 152.241 240.736 151.896 241.098 151.457C241.471 151.018 241.91 150.623 242.415 150.272C242.919 149.91 243.396 149.729 243.846 149.729ZM261.089 153.004L261.76 149.608H257.101C257.054 149.503 257.054 149.299 257.101 148.996L264.307 140.546C264.458 140.388 264.616 140.309 264.781 140.309C264.952 140.309 265.018 140.375 264.978 140.506L263.418 148.463H264.741C264.86 148.463 264.899 148.509 264.86 148.601C264.781 149.029 264.675 149.365 264.544 149.608H263.201L262.53 153.063C262.484 153.129 262.221 153.162 261.74 153.162C261.503 153.162 261.336 153.152 261.237 153.132C261.138 153.112 261.089 153.07 261.089 153.004ZM258.641 148.463H261.977L263.004 143.211C263.017 143.185 263.017 143.149 263.004 143.103C262.991 143.056 262.971 143.033 262.945 143.033L262.905 143.073L258.562 148.226C258.548 148.239 258.542 148.259 258.542 148.285C258.515 148.404 258.548 148.463 258.641 148.463Z" fill="black"/>
<path d="M228.845 140.368C229.201 140.368 229.527 140.477 229.823 140.694C230.125 140.904 230.352 141.201 230.504 141.582C230.655 141.957 230.682 142.395 230.583 142.895C230.464 143.474 230.237 143.965 229.902 144.366C229.566 144.768 229.115 145.166 228.549 145.561C228.813 145.666 229.063 145.807 229.3 145.985C229.536 146.163 229.763 146.39 229.981 146.666C230.198 146.943 230.352 147.282 230.445 147.683C230.537 148.084 230.537 148.516 230.445 148.976C230.287 149.805 229.961 150.533 229.467 151.158C228.974 151.783 228.372 152.27 227.661 152.619C226.95 152.968 226.187 153.142 225.371 153.142C224.331 153.142 223.574 152.945 223.1 152.55C223.061 152.51 223.034 152.425 223.021 152.293C223.008 152.162 223.008 152.056 223.021 151.977C223.159 151.359 223.449 151.049 223.89 151.049C224.067 151.049 224.225 151.161 224.364 151.385C224.508 151.602 224.653 151.786 224.798 151.938C225.107 152.214 225.542 152.352 226.101 152.352C226.588 152.352 227.085 152.152 227.592 151.75C227.848 151.546 228.082 151.25 228.293 150.862C228.503 150.473 228.661 150.016 228.766 149.49C228.872 148.97 228.855 148.502 228.717 148.088C228.585 147.667 228.368 147.331 228.066 147.081C227.763 146.831 227.404 146.706 226.99 146.706C226.555 146.706 226.147 146.752 225.765 146.844C225.686 146.719 225.673 146.548 225.726 146.331C225.739 146.291 225.752 146.255 225.765 146.222C225.779 146.189 225.792 146.159 225.805 146.133C226.687 145.975 227.424 145.659 228.016 145.185C228.608 144.712 228.984 144.067 229.142 143.251C229.234 142.803 229.151 142.405 228.895 142.056C228.638 141.707 228.299 141.533 227.878 141.533C227.615 141.533 227.358 141.582 227.108 141.681C226.858 141.78 226.667 141.882 226.535 141.987C226.417 142.079 226.295 142.188 226.17 142.313C226.045 142.438 225.956 142.514 225.904 142.54C225.851 142.54 225.815 142.477 225.795 142.352C225.775 142.227 225.772 142.119 225.785 142.026C226.22 141.5 226.674 141.092 227.147 140.802C227.621 140.513 228.187 140.368 228.845 140.368Z" fill="black"/>
<path d="M215 130.478H277" stroke="black" stroke-width="1.16096"/>
<path d="M220.391 153.629L226.168 168.217L241.571 137.217H274.304" stroke="black" stroke-width="1.34783"/>
<path d="M246.991 210.385C246.893 210.326 246.809 210.213 246.741 210.046C246.672 209.879 246.637 209.746 246.637 209.648C246.637 209.589 246.667 209.53 246.726 209.471C250.272 207.212 252.069 206.083 252.118 206.083H252.177C252.334 206.083 252.413 206.269 252.413 206.643C252.098 207.301 251.823 208.224 251.588 209.412L249.348 221.022C249.24 221.621 249.162 222.142 249.113 222.584C249.063 223.016 249.044 223.369 249.054 223.644C249.073 223.733 249.196 223.826 249.422 223.924C249.658 224.013 249.908 224.086 250.173 224.145C250.448 224.204 250.645 224.234 250.763 224.234C250.822 224.234 250.822 224.411 250.763 224.764C250.753 224.921 250.723 225.029 250.674 225.088C249.771 225.039 249.044 225.005 248.494 224.985C247.954 224.956 247.59 224.941 247.404 224.941C247.266 224.941 246.927 224.956 246.387 224.985C245.857 225.005 245.125 225.039 244.192 225.088C244.133 225.01 244.133 224.848 244.192 224.602C244.251 224.357 244.31 224.234 244.369 224.234C244.545 224.234 244.786 224.204 245.09 224.145C245.395 224.086 245.68 224.013 245.945 223.924C246.21 223.826 246.362 223.733 246.402 223.644C246.549 223.34 246.706 222.78 246.873 221.965L248.936 211.357C249.054 210.778 249.127 210.345 249.157 210.061C249.196 209.628 249.122 209.412 248.936 209.412C248.818 209.412 248.621 209.481 248.346 209.619C248.081 209.756 247.816 209.903 247.551 210.061C247.286 210.218 247.099 210.326 246.991 210.385Z" fill="black"/>
<path d="M201.074 259.318C201.074 257.782 201.239 256.219 201.568 254.629C201.908 253.027 202.352 251.497 202.9 250.038C203.46 248.579 204.068 247.291 204.727 246.172C205.725 244.483 206.728 243.106 207.738 242.042C208.758 240.967 209.575 240.43 210.189 240.43C210.386 240.43 210.485 240.649 210.485 241.088C210.485 241.198 210.463 241.274 210.419 241.318C209.553 241.724 208.549 242.832 207.408 244.642C206.663 245.837 205.95 247.274 205.27 248.952C204.6 250.631 204.058 252.396 203.641 254.25C203.224 256.104 203.016 257.903 203.016 259.647C203.016 261.775 203.262 263.656 203.756 265.29C204.249 266.924 204.738 267.884 205.22 268.169C205.242 268.169 205.253 268.202 205.253 268.268C205.253 268.4 205.182 268.559 205.039 268.745C204.897 268.932 204.77 269.025 204.661 269.025C203.882 269.025 203.092 268.065 202.292 266.146C201.48 264.204 201.074 261.928 201.074 259.318ZM220.206 250.729C221.127 250.729 221.873 251.684 222.443 253.592L223.134 255.928L225.076 252.605C225.8 251.354 226.721 250.729 227.84 250.729C228.597 250.729 229.233 250.949 229.748 251.387C229.924 251.727 230.012 252.013 230.012 252.243C230.012 252.572 229.896 252.852 229.666 253.082C229.436 253.312 229.2 253.428 228.959 253.428C228.662 253.428 228.339 253.258 227.988 252.918C227.637 252.577 227.302 252.407 226.984 252.407C226.721 252.407 226.425 252.693 226.096 253.263L223.628 257.475L225.043 262.115C225.262 262.861 225.558 263.234 225.931 263.234C226.26 263.234 226.611 263.063 226.984 262.723C227.357 262.383 227.62 262.071 227.774 261.786C227.862 261.786 227.971 261.873 228.103 262.049C228.235 262.224 228.3 262.356 228.3 262.444C228.257 262.685 228.048 263.031 227.675 263.48C227.313 263.919 226.88 264.319 226.375 264.681C225.882 265.032 225.405 265.208 224.944 265.208C224.034 265.208 223.288 264.254 222.706 262.345L221.95 259.778L219.876 263.365C219.153 264.616 218.231 265.241 217.112 265.241C216.356 265.241 215.719 265.021 215.204 264.583C215.028 264.276 214.941 263.99 214.941 263.727C214.941 263.398 215.056 263.118 215.286 262.888C215.516 262.658 215.752 262.542 215.994 262.542C216.29 262.542 216.613 262.712 216.964 263.053C217.315 263.393 217.65 263.563 217.968 263.563C218.231 263.563 218.527 263.277 218.856 262.707L221.456 258.232L220.107 253.822C219.887 253.077 219.591 252.704 219.218 252.704C218.889 252.704 218.538 252.874 218.165 253.214C217.792 253.554 217.529 253.866 217.376 254.151C217.288 254.151 217.178 254.064 217.047 253.888C216.915 253.713 216.849 253.581 216.849 253.493C216.893 253.241 217.096 252.896 217.458 252.457C217.831 252.018 218.27 251.623 218.774 251.272C219.279 250.91 219.756 250.729 220.206 250.729ZM237.448 254.004L238.12 250.608H233.46C233.414 250.503 233.414 250.299 233.46 249.996L240.666 241.546C240.818 241.388 240.976 241.309 241.14 241.309C241.311 241.309 241.377 241.375 241.338 241.506L239.778 249.463H241.101C241.219 249.463 241.259 249.509 241.219 249.601C241.14 250.029 241.035 250.364 240.903 250.608H239.561L238.89 254.063C238.843 254.129 238.58 254.162 238.1 254.162C237.863 254.162 237.695 254.152 237.596 254.132C237.498 254.112 237.448 254.07 237.448 254.004ZM235 249.463H238.337L239.363 244.211C239.377 244.185 239.377 244.149 239.363 244.102C239.35 244.056 239.33 244.033 239.304 244.033L239.265 244.073L234.921 249.226C234.908 249.239 234.901 249.259 234.901 249.285C234.875 249.404 234.908 249.463 235 249.463ZM252.71 250.005C252.71 252.089 252.452 254.157 251.937 256.208C251.421 258.259 250.78 260.025 250.012 261.506C249.628 262.241 249.233 262.943 248.827 263.612C248.421 264.281 248.004 264.906 247.577 265.488C246.886 266.431 246.162 267.254 245.405 267.956C244.648 268.668 244.045 269.025 243.595 269.025C243.398 269.025 243.299 268.828 243.299 268.433C243.299 268.268 243.332 268.18 243.398 268.169C243.705 268.027 244.138 267.632 244.697 266.985C245.257 266.338 245.888 265.438 246.59 264.286C247.281 263.146 247.944 261.846 248.58 260.387C249.206 258.95 249.727 257.25 250.143 255.287C250.56 253.323 250.769 251.344 250.769 249.347C250.769 247.307 250.566 245.547 250.16 244.066C249.754 242.585 249.244 241.669 248.63 241.318C248.608 241.296 248.597 241.274 248.597 241.252C248.597 241.143 248.663 240.978 248.794 240.759C248.926 240.539 249.046 240.43 249.156 240.43C250.012 240.43 250.818 241.351 251.575 243.194C252.332 245.037 252.71 247.307 252.71 250.005ZM260.278 244.251C260.213 244.211 260.157 244.135 260.111 244.023C260.064 243.912 260.041 243.823 260.041 243.757C260.041 243.717 260.061 243.678 260.101 243.638C262.476 242.125 263.681 241.368 263.714 241.368H263.753C263.859 241.368 263.911 241.493 263.911 241.743C263.701 242.184 263.516 242.803 263.358 243.599L261.858 251.378C261.785 251.779 261.733 252.128 261.7 252.424C261.667 252.714 261.654 252.951 261.66 253.135C261.674 253.194 261.756 253.257 261.907 253.323C262.065 253.382 262.233 253.431 262.411 253.471C262.595 253.51 262.727 253.53 262.806 253.53C262.845 253.53 262.845 253.648 262.806 253.885C262.799 253.991 262.779 254.063 262.746 254.103C262.141 254.07 261.654 254.047 261.285 254.033C260.923 254.014 260.68 254.004 260.555 254.004C260.463 254.004 260.236 254.014 259.874 254.033C259.518 254.047 259.028 254.07 258.403 254.103C258.363 254.05 258.363 253.941 258.403 253.777C258.442 253.612 258.482 253.53 258.521 253.53C258.64 253.53 258.801 253.51 259.005 253.471C259.209 253.431 259.4 253.382 259.577 253.323C259.755 253.257 259.857 253.194 259.883 253.135C259.982 252.931 260.088 252.556 260.199 252.01L261.581 244.902C261.66 244.514 261.71 244.224 261.73 244.033C261.756 243.744 261.706 243.599 261.581 243.599C261.502 243.599 261.371 243.645 261.187 243.737C261.009 243.829 260.831 243.928 260.653 244.033C260.476 244.139 260.351 244.211 260.278 244.251ZM277.212 239.137L268.84 254.28C268.676 254.557 268.34 254.695 267.834 254.695C267.662 254.695 267.544 254.662 267.478 254.596L275.869 239.453C276.04 239.163 276.33 239.018 276.738 239.018C276.896 239.018 277.054 239.058 277.212 239.137ZM284.176 241.368C284.531 241.368 284.857 241.477 285.153 241.694C285.456 241.904 285.683 242.2 285.834 242.582C285.986 242.957 286.012 243.395 285.913 243.895C285.795 244.474 285.568 244.965 285.232 245.366C284.896 245.767 284.446 246.166 283.88 246.561C284.143 246.666 284.393 246.807 284.63 246.985C284.867 247.163 285.094 247.39 285.311 247.666C285.528 247.943 285.683 248.282 285.775 248.683C285.867 249.084 285.867 249.515 285.775 249.976C285.617 250.805 285.291 251.533 284.798 252.158C284.304 252.783 283.702 253.27 282.991 253.619C282.28 253.968 281.517 254.142 280.701 254.142C279.661 254.142 278.904 253.945 278.43 253.55C278.391 253.51 278.365 253.425 278.351 253.293C278.338 253.161 278.338 253.056 278.351 252.977C278.49 252.359 278.779 252.049 279.22 252.049C279.398 252.049 279.556 252.161 279.694 252.385C279.839 252.602 279.983 252.786 280.128 252.938C280.438 253.214 280.872 253.352 281.431 253.352C281.918 253.352 282.415 253.152 282.922 252.75C283.179 252.546 283.412 252.25 283.623 251.862C283.833 251.473 283.991 251.016 284.097 250.489C284.202 249.97 284.186 249.502 284.047 249.088C283.916 248.667 283.699 248.331 283.396 248.081C283.093 247.831 282.734 247.706 282.32 247.706C281.885 247.706 281.477 247.752 281.096 247.844C281.017 247.719 281.004 247.548 281.056 247.331C281.069 247.291 281.083 247.255 281.096 247.222C281.109 247.189 281.122 247.159 281.135 247.133C282.017 246.975 282.754 246.659 283.346 246.185C283.939 245.712 284.314 245.067 284.472 244.251C284.564 243.803 284.482 243.405 284.225 243.056C283.968 242.707 283.629 242.533 283.208 242.533C282.945 242.533 282.688 242.582 282.438 242.681C282.188 242.78 281.997 242.882 281.866 242.987C281.747 243.079 281.625 243.188 281.5 243.313C281.375 243.438 281.287 243.513 281.234 243.54C281.181 243.54 281.145 243.477 281.125 243.352C281.106 243.227 281.102 243.119 281.115 243.026C281.55 242.5 282.004 242.092 282.478 241.802C282.952 241.513 283.518 241.368 284.176 241.368Z" fill="black"/>
<path d="M198 231H294" stroke="black" stroke-width="1.16096"/>
<path d="M246.991 316.385C246.893 316.326 246.809 316.213 246.741 316.046C246.672 315.879 246.637 315.746 246.637 315.648C246.637 315.589 246.667 315.53 246.726 315.471C250.272 313.212 252.069 312.083 252.118 312.083H252.177C252.334 312.083 252.413 312.269 252.413 312.643C252.098 313.301 251.823 314.224 251.588 315.412L249.348 327.022C249.24 327.621 249.162 328.142 249.113 328.584C249.063 329.016 249.044 329.369 249.054 329.644C249.073 329.733 249.196 329.826 249.422 329.924C249.658 330.013 249.908 330.086 250.173 330.145C250.448 330.204 250.645 330.234 250.763 330.234C250.822 330.234 250.822 330.411 250.763 330.764C250.753 330.921 250.723 331.029 250.674 331.088C249.771 331.039 249.044 331.005 248.494 330.985C247.954 330.956 247.59 330.941 247.404 330.941C247.266 330.941 246.927 330.956 246.387 330.985C245.857 331.005 245.125 331.039 244.192 331.088C244.133 331.01 244.133 330.848 244.192 330.602C244.251 330.357 244.31 330.234 244.369 330.234C244.545 330.234 244.786 330.204 245.09 330.145C245.395 330.086 245.68 330.013 245.945 329.924C246.21 329.826 246.362 329.733 246.402 329.644C246.549 329.34 246.706 328.78 246.873 327.965L248.936 317.357C249.054 316.778 249.127 316.345 249.157 316.061C249.196 315.628 249.122 315.412 248.936 315.412C248.818 315.412 248.621 315.481 248.346 315.619C248.081 315.756 247.816 315.903 247.551 316.061C247.286 316.218 247.099 316.326 246.991 316.385Z" fill="black"/>
<path d="M226.175 356.729C227.096 356.729 227.842 357.684 228.412 359.592L229.103 361.928L231.045 358.605C231.769 357.354 232.69 356.729 233.809 356.729C234.566 356.729 235.202 356.949 235.717 357.387C235.893 357.727 235.98 358.013 235.98 358.243C235.98 358.572 235.865 358.852 235.635 359.082C235.405 359.312 235.169 359.428 234.927 359.428C234.631 359.428 234.308 359.258 233.957 358.918C233.606 358.577 233.271 358.407 232.953 358.407C232.69 358.407 232.394 358.693 232.065 359.263L229.597 363.475L231.012 368.115C231.231 368.861 231.527 369.234 231.9 369.234C232.229 369.234 232.58 369.063 232.953 368.723C233.326 368.383 233.589 368.071 233.743 367.786C233.831 367.786 233.94 367.873 234.072 368.049C234.204 368.224 234.269 368.356 234.269 368.444C234.225 368.685 234.017 369.031 233.644 369.48C233.282 369.919 232.849 370.319 232.344 370.681C231.851 371.032 231.374 371.208 230.913 371.208C230.003 371.208 229.257 370.254 228.675 368.345L227.919 365.778L225.845 369.365C225.122 370.616 224.2 371.241 223.081 371.241C222.325 371.241 221.688 371.021 221.173 370.583C220.997 370.276 220.91 369.99 220.91 369.727C220.91 369.398 221.025 369.118 221.255 368.888C221.485 368.658 221.721 368.542 221.963 368.542C222.259 368.542 222.582 368.712 222.933 369.053C223.284 369.393 223.619 369.563 223.937 369.563C224.2 369.563 224.496 369.277 224.825 368.707L227.425 364.232L226.076 359.822C225.856 359.077 225.56 358.704 225.187 358.704C224.858 358.704 224.507 358.874 224.134 359.214C223.761 359.554 223.498 359.866 223.345 360.151C223.257 360.151 223.147 360.064 223.016 359.888C222.884 359.713 222.818 359.581 222.818 359.493C222.862 359.241 223.065 358.896 223.427 358.457C223.8 358.018 224.239 357.623 224.743 357.272C225.248 356.91 225.725 356.729 226.175 356.729ZM243.417 360.004L244.088 356.608H239.429C239.383 356.503 239.383 356.299 239.429 355.996L246.635 347.546C246.787 347.388 246.945 347.309 247.109 347.309C247.28 347.309 247.346 347.375 247.307 347.506L245.747 355.463H247.07C247.188 355.463 247.228 355.509 247.188 355.601C247.109 356.029 247.004 356.364 246.872 356.608H245.53L244.858 360.063C244.812 360.129 244.549 360.162 244.069 360.162C243.832 360.162 243.664 360.152 243.565 360.132C243.467 360.112 243.417 360.07 243.417 360.004ZM240.969 355.463H244.306L245.332 350.211C245.345 350.185 245.345 350.149 245.332 350.102C245.319 350.056 245.299 350.033 245.273 350.033L245.234 350.073L240.89 355.226C240.877 355.239 240.87 355.259 240.87 355.285C240.844 355.404 240.877 355.463 240.969 355.463ZM259.265 345.137L250.893 360.28C250.729 360.557 250.393 360.695 249.887 360.695C249.715 360.695 249.597 360.662 249.531 360.596L257.922 345.453C258.093 345.163 258.383 345.018 258.791 345.018C258.949 345.018 259.107 345.058 259.265 345.137ZM266.229 347.368C266.584 347.368 266.91 347.477 267.206 347.694C267.509 347.904 267.736 348.2 267.887 348.582C268.038 348.957 268.065 349.395 267.966 349.895C267.848 350.474 267.621 350.965 267.285 351.366C266.949 351.767 266.498 352.166 265.932 352.561C266.196 352.666 266.446 352.807 266.683 352.985C266.92 353.163 267.147 353.39 267.364 353.666C267.581 353.943 267.736 354.282 267.828 354.683C267.92 355.084 267.92 355.515 267.828 355.976C267.67 356.805 267.344 357.533 266.851 358.158C266.357 358.783 265.755 359.27 265.044 359.619C264.333 359.968 263.57 360.142 262.754 360.142C261.714 360.142 260.957 359.945 260.483 359.55C260.444 359.51 260.417 359.425 260.404 359.293C260.391 359.161 260.391 359.056 260.404 358.977C260.542 358.359 260.832 358.049 261.273 358.049C261.451 358.049 261.609 358.161 261.747 358.385C261.892 358.602 262.036 358.786 262.181 358.938C262.491 359.214 262.925 359.352 263.484 359.352C263.971 359.352 264.468 359.152 264.975 358.75C265.232 358.546 265.465 358.25 265.676 357.862C265.886 357.473 266.044 357.016 266.15 356.489C266.255 355.97 266.239 355.502 266.1 355.088C265.969 354.667 265.752 354.331 265.449 354.081C265.146 353.831 264.787 353.706 264.373 353.706C263.938 353.706 263.53 353.752 263.149 353.844C263.07 353.719 263.057 353.548 263.109 353.331C263.122 353.291 263.135 353.255 263.149 353.222C263.162 353.189 263.175 353.159 263.188 353.133C264.07 352.975 264.807 352.659 265.399 352.185C265.992 351.712 266.367 351.067 266.525 350.251C266.617 349.803 266.535 349.405 266.278 349.056C266.021 348.707 265.682 348.533 265.261 348.533C264.998 348.533 264.741 348.582 264.491 348.681C264.241 348.78 264.05 348.882 263.919 348.987C263.8 349.079 263.678 349.188 263.553 349.313C263.428 349.438 263.339 349.513 263.287 349.54C263.234 349.54 263.198 349.477 263.178 349.352C263.159 349.227 263.155 349.119 263.168 349.026C263.603 348.5 264.057 348.092 264.531 347.802C265.005 347.513 265.571 347.368 266.229 347.368Z" fill="black"/>
<path d="M198 337H294" stroke="black" stroke-width="1.16096"/>
<rect x="181" y="403.283" width="137.999" height="64.7168" rx="13.6243" fill="#98F1D1"/>
<path d="M224.92 435.636C225.937 435.636 226.76 436.689 227.389 438.795L228.152 441.373L230.294 437.706C231.093 436.326 232.109 435.636 233.344 435.636C234.179 435.636 234.881 435.878 235.45 436.362C235.644 436.738 235.74 437.052 235.74 437.306C235.74 437.669 235.613 437.978 235.359 438.232C235.105 438.486 234.845 438.614 234.579 438.614C234.252 438.614 233.895 438.426 233.507 438.051C233.12 437.676 232.751 437.488 232.4 437.488C232.109 437.488 231.783 437.803 231.42 438.432L228.696 443.08L230.258 448.199C230.5 449.022 230.826 449.434 231.238 449.434C231.601 449.434 231.988 449.246 232.4 448.871C232.811 448.496 233.102 448.151 233.271 447.836C233.368 447.836 233.489 447.933 233.634 448.127C233.78 448.32 233.852 448.466 233.852 448.562C233.804 448.829 233.574 449.21 233.162 449.706C232.763 450.19 232.285 450.632 231.728 451.032C231.184 451.419 230.657 451.613 230.149 451.613C229.144 451.613 228.321 450.56 227.68 448.454L226.844 445.621L224.557 449.579C223.758 450.959 222.741 451.649 221.507 451.649C220.672 451.649 219.97 451.407 219.401 450.923C219.207 450.584 219.11 450.269 219.11 449.979C219.11 449.615 219.238 449.307 219.492 449.053C219.746 448.798 220.006 448.671 220.272 448.671C220.599 448.671 220.956 448.859 221.344 449.234C221.731 449.609 222.1 449.797 222.451 449.797C222.741 449.797 223.068 449.482 223.431 448.853L226.3 443.915L224.811 439.049C224.569 438.226 224.242 437.815 223.831 437.815C223.468 437.815 223.08 438.002 222.669 438.378C222.257 438.753 221.967 439.098 221.797 439.412C221.701 439.412 221.58 439.316 221.434 439.122C221.289 438.928 221.216 438.783 221.216 438.686C221.265 438.408 221.489 438.027 221.888 437.542C222.3 437.058 222.784 436.623 223.341 436.235C223.897 435.836 224.424 435.636 224.92 435.636ZM239.241 433.745L244.186 433.483C244.273 433.483 244.317 433.571 244.317 433.745C244.317 433.846 244.288 433.984 244.23 434.159C244.179 434.333 244.114 434.489 244.034 434.627C243.961 434.765 243.888 434.841 243.816 434.856L238.892 435.096C238.82 435.096 238.783 434.987 238.783 434.769C238.783 434.624 238.834 434.42 238.936 434.159C239.037 433.897 239.139 433.759 239.241 433.745ZM254.091 439.387L254.832 435.64H249.691C249.64 435.524 249.64 435.299 249.691 434.965L257.643 425.64C257.81 425.466 257.984 425.379 258.165 425.379C258.354 425.379 258.427 425.452 258.383 425.597L256.662 434.377H258.122C258.253 434.377 258.296 434.427 258.253 434.529C258.165 435.001 258.049 435.372 257.904 435.64H256.423L255.682 439.453C255.631 439.525 255.341 439.562 254.81 439.562C254.549 439.562 254.364 439.551 254.255 439.529C254.146 439.507 254.091 439.46 254.091 439.387ZM251.39 434.377H255.072L256.205 428.582C256.219 428.553 256.219 428.513 256.205 428.462C256.19 428.411 256.168 428.385 256.139 428.385L256.096 428.429L251.303 434.115C251.288 434.13 251.281 434.151 251.281 434.181C251.252 434.311 251.288 434.377 251.39 434.377ZM271.578 422.983L262.341 439.692C262.16 439.997 261.789 440.15 261.23 440.15C261.041 440.15 260.911 440.114 260.838 440.041L270.097 423.331C270.286 423.012 270.605 422.852 271.056 422.852C271.23 422.852 271.404 422.895 271.578 422.983ZM279.263 425.444C279.655 425.444 280.014 425.564 280.341 425.804C280.675 426.036 280.926 426.363 281.093 426.784C281.26 427.198 281.289 427.681 281.18 428.233C281.049 428.872 280.799 429.413 280.428 429.856C280.058 430.299 279.56 430.738 278.936 431.174C279.226 431.29 279.502 431.446 279.764 431.642C280.025 431.839 280.276 432.089 280.515 432.394C280.755 432.699 280.926 433.073 281.027 433.516C281.129 433.959 281.129 434.435 281.027 434.943C280.853 435.858 280.494 436.661 279.949 437.35C279.404 438.04 278.74 438.578 277.956 438.963C277.171 439.347 276.329 439.54 275.428 439.54C274.281 439.54 273.446 439.322 272.923 438.886C272.879 438.843 272.85 438.748 272.836 438.603C272.821 438.458 272.821 438.342 272.836 438.255C272.988 437.572 273.308 437.231 273.794 437.231C273.991 437.231 274.165 437.354 274.317 437.601C274.477 437.841 274.637 438.044 274.797 438.211C275.138 438.516 275.617 438.668 276.234 438.668C276.772 438.668 277.32 438.447 277.879 438.004C278.163 437.779 278.42 437.452 278.653 437.024C278.885 436.595 279.059 436.09 279.176 435.509C279.292 434.936 279.274 434.42 279.121 433.963C278.976 433.498 278.736 433.128 278.402 432.852C278.068 432.576 277.672 432.438 277.215 432.438C276.736 432.438 276.285 432.489 275.864 432.59C275.777 432.452 275.762 432.263 275.821 432.024C275.835 431.98 275.85 431.94 275.864 431.904C275.879 431.868 275.893 431.835 275.908 431.806C276.881 431.632 277.694 431.283 278.348 430.76C279.001 430.237 279.415 429.526 279.59 428.625C279.691 428.131 279.6 427.692 279.317 427.307C279.034 426.922 278.66 426.73 278.195 426.73C277.905 426.73 277.622 426.784 277.346 426.893C277.07 427.002 276.859 427.115 276.714 427.231C276.583 427.332 276.449 427.452 276.311 427.59C276.173 427.728 276.075 427.812 276.017 427.841C275.959 427.841 275.919 427.772 275.897 427.634C275.875 427.496 275.871 427.376 275.886 427.274C276.365 426.693 276.866 426.243 277.389 425.924C277.912 425.604 278.537 425.444 279.263 425.444Z" fill="black"/>
<rect x="146" y="40" width="122" height="34" rx="17" fill="#C7F7E6"/>
<rect x="187" y="51" width="70" height="12" rx="6" fill="#59E8B5"/>
<path d="M164.78 44.5919C165.751 43.6935 167.249 43.6935 168.22 44.5919L169.667 45.9316C170.166 46.3937 170.83 46.6354 171.51 46.6023L173.48 46.5064C174.801 46.442 175.949 47.4052 176.115 48.7172L176.362 50.6738C176.448 51.3487 176.801 51.9608 177.343 52.3722L178.913 53.5649C179.967 54.3647 180.227 55.8404 179.511 56.9521L178.443 58.6101C178.074 59.182 177.952 59.8781 178.102 60.5415L178.539 62.4647C178.831 63.7544 178.082 65.0521 176.819 65.4434L174.935 66.027C174.285 66.2283 173.744 66.6826 173.433 67.2876L172.531 69.0415C171.926 70.2176 170.518 70.7301 169.299 70.2179L167.481 69.454C166.853 69.1905 166.147 69.1905 165.519 69.454L163.701 70.2179C162.482 70.7301 161.074 70.2176 160.469 69.0415L159.567 67.2876C159.256 66.6826 158.715 66.2283 158.065 66.027L156.181 65.4434C154.918 65.0521 154.169 63.7544 154.461 62.4647L154.898 60.5415C155.048 59.8781 154.926 59.182 154.557 58.6101L153.489 56.9521C152.773 55.8404 153.033 54.3647 154.087 53.5649L155.657 52.3722C156.199 51.9608 156.552 51.3487 156.638 50.6738L156.885 48.7172C157.051 47.4052 158.199 46.442 159.52 46.5064L161.49 46.6023C162.17 46.6354 162.834 46.3937 163.333 45.9316L164.78 44.5919Z" fill="#586380"/>
<path d="M162.279 58.2713L165.317 61.3548L172.19 54.3801" stroke="#C7F7E6" stroke-width="2.21519" stroke-linecap="round" stroke-linejoin="round"/>
<defs>
<filter id="filter0_d_1871_66739" x="116.152" y="180.864" width="267.696" height="136.696" filterUnits="userSpaceOnUse" color-interpolation-filters="sRGB">
<feFlood flood-opacity="0" result="BackgroundImageFix"/>
<feColorMatrix in="SourceAlpha" type="matrix" values="0 0 0 0 0 0 0 0 0 0 0 0 0 0 0 0 0 0 127 0" result="hardAlpha"/>
<feOffset dy="6.71205"/>
<feGaussianBlur stdDeviation="13.4241"/>
<feColorMatrix type="matrix" values="0 0 0 0 0.188235 0 0 0 0 0.207843 0 0 0 0 0.270588 0 0 0 0.08 0"/>
<feBlend mode="normal" in2="BackgroundImageFix" result="effect1_dropShadow_1871_66739"/>
<feBlend mode="normal" in="SourceGraphic" in2="effect1_dropShadow_1871_66739" result="shape"/>
</filter>
<filter id="filter1_d_1871_66739" x="116.147" y="284.103" width="266.886" height="136.972" filterUnits="userSpaceOnUse" color-interpolation-filters="sRGB">
<feFlood flood-opacity="0" result="BackgroundImageFix"/>
<feColorMatrix in="SourceAlpha" type="matrix" values="0 0 0 0 0 0 0 0 0 0 0 0 0 0 0 0 0 0 127 0" result="hardAlpha"/>
<feOffset dy="6.71336"/>
<feGaussianBlur stdDeviation="13.4267"/>
<feColorMatrix type="matrix" values="0 0 0 0 0.188235 0 0 0 0 0.207843 0 0 0 0 0.270588 0 0 0 0.08 0"/>
<feBlend mode="normal" in2="BackgroundImageFix" result="effect1_dropShadow_1871_66739"/>
<feBlend mode="normal" in="SourceGraphic" in2="effect1_dropShadow_1871_66739" result="shape"/>
</filter>
<filter id="filter2_d_1871_66739" x="116.152" y="73.8637" width="267.696" height="136.696" filterUnits="userSpaceOnUse" color-interpolation-filters="sRGB">
<feFlood flood-opacity="0" result="BackgroundImageFix"/>
<feColorMatrix in="SourceAlpha" type="matrix" values="0 0 0 0 0 0 0 0 0 0 0 0 0 0 0 0 0 0 127 0" result="hardAlpha"/>
<feOffset dy="6.71205"/>
<feGaussianBlur stdDeviation="13.4241"/>
<feColorMatrix type="matrix" values="0 0 0 0 0.188235 0 0 0 0 0.207843 0 0 0 0 0.270588 0 0 0 0.08 0"/>
<feBlend mode="normal" in2="BackgroundImageFix" result="effect1_dropShadow_1871_66739"/>
<feBlend mode="normal" in="SourceGraphic" in2="effect1_dropShadow_1871_66739" result="shape"/>
</filter>
</defs>
</svg>